<svg xmlns="http://www.w3.org/2000/svg" width="134.384" height="24.746" viewBox="0 0 134.384 24.746"><g transform="translate(-134 -67.627)"><g transform="translate(134 67.627)"><circle cx="1.593" cy="1.593" r="1.593" transform="translate(131.073 5.309)" fill="none" stroke="#db0017" stroke-miterlimit="10" stroke-width="0.25"/><path d="M269.666,184.376v-.407a3.073,3.073,0,0,0,2.039-1.092,4.493,4.493,0,0,0,.487-2.513V170.43a8.137,8.137,0,0,0-.132-1.691,2.128,2.128,0,0,0-.487-.967,3.072,3.072,0,0,0-1.908-.948v-.407l.21.013,1.578.105q.842.053,1.658.053.684,0,1.618-.059t1.421-.112l1.329-.145a13.323,13.323,0,0,1,1.474-.079,8.884,8.884,0,0,1,2.454.316,5.689,5.689,0,0,1,1.874.9,4.084,4.084,0,0,1,1.2,1.407,3.944,3.944,0,0,1,.421,1.822,3.678,3.678,0,0,1-.98,2.605,5.7,5.7,0,0,1-2.848,1.526,6.906,6.906,0,0,1,2.737.829,4.809,4.809,0,0,1,1.822,1.756,4.723,4.723,0,0,1,.638,2.441,4.5,4.5,0,0,1-.421,1.98A4.3,4.3,0,0,1,284.6,183.3a5.683,5.683,0,0,1-2,.98,9.458,9.458,0,0,1-2.565.329q-.724,0-2.092-.119-2-.157-2.737-.2-1.2-.066-2.184-.065-.776,0-1.737.052l-1.355.079Zm5.538-9.7h2.132a4.7,4.7,0,0,0,2.894-.763,3.5,3.5,0,0,0,1.092-1.362,4.183,4.183,0,0,0,.408-1.809,4.277,4.277,0,0,0-.487-2.052,3.587,3.587,0,0,0-1.355-1.421,3.756,3.756,0,0,0-1.947-.513,3.209,3.209,0,0,0-1.474.316,2.283,2.283,0,0,0-.96.908,4.361,4.361,0,0,0-.3,1.881Zm0,.513v5.539a3.13,3.13,0,0,0,.783,2.414,3.976,3.976,0,0,0,2.664.7,4.2,4.2,0,0,0,3.263-1.224,4.3,4.3,0,0,0,1.105-3.013,5.036,5.036,0,0,0-.191-1.415,4.111,4.111,0,0,0-.566-1.19,3.956,3.956,0,0,0-.9-.928,3.814,3.814,0,0,0-1.2-.585,9.11,9.11,0,0,0-2.71-.3Z" transform="translate(-217.358 -164.85)" fill="#5a5c5e"/><path d="M316.408,185.242a5.229,5.229,0,0,1,.823-2.835,5.857,5.857,0,0,1,2.223-2.066,6.363,6.363,0,0,1,3.072-.756,6.473,6.473,0,0,1,2.355.427,6.032,6.032,0,0,1,1.947,1.21,5.585,5.585,0,0,1,1.309,1.829,5.36,5.36,0,0,1-.342,5.02,5.75,5.75,0,0,1-2.211,2.072,6.311,6.311,0,0,1-3.046.756,6.444,6.444,0,0,1-3.079-.75,5.8,5.8,0,0,1-2.23-2.059A5.249,5.249,0,0,1,316.408,185.242Zm2.882-.079a9,9,0,0,0,.231,2.1,5.313,5.313,0,0,0,.664,1.638,3.267,3.267,0,0,0,1.033,1.046,2.478,2.478,0,0,0,2.611-.006,3.238,3.238,0,0,0,1.027-1.04,5.36,5.36,0,0,0,.651-1.638,9.137,9.137,0,0,0,.23-2.1,8.254,8.254,0,0,0-.4-2.684,4.156,4.156,0,0,0-1.131-1.815,2.479,2.479,0,0,0-1.691-.645,2.662,2.662,0,0,0-2.342,1.421A6.987,6.987,0,0,0,319.29,185.163Z" transform="translate(-239.458 -171.11)" fill="#5a5c5e"/><path d="M342,179.363l3.776-3.236q.908-.789.908-1.316,0-.763-1.408-.855V173.6h5.065v.355a4.283,4.283,0,0,0-1.6.513,10.467,10.467,0,0,0-1.849,1.342c-.1.087-.18.151-.224.191a.527.527,0,0,1-.092.072l-1.407,1.184,3.328,4.487.25.342a7.03,7.03,0,0,0,1.336,1.415,2.7,2.7,0,0,0,1.336.519v.355h-6.855v-.355q1.407-.092,1.408-.829a2.212,2.212,0,0,0-.526-1.144l-.21-.29-2.052-2.828L342,179.942v1.908a2.8,2.8,0,0,0,.322,1.552,1.794,1.794,0,0,0,1.217.619v.355h-5.776v-.355a1.841,1.841,0,0,0,1.224-.611,2.755,2.755,0,0,0,.329-1.56V169.141a2.782,2.782,0,0,0-.335-1.573,1.742,1.742,0,0,0-1.217-.6v-.289l4.237-.487Z" transform="translate(-249.579 -164.85)" fill="#5a5c5e"/><path d="M366.321,184.493v.29a7.487,7.487,0,0,0,.461,2.743,4.089,4.089,0,0,0,1.308,1.822,3.2,3.2,0,0,0,1.993.644,3.823,3.823,0,0,0,1.217-.2,5.463,5.463,0,0,0,1.21-.585,9.737,9.737,0,0,0,1.348-1.079l.264.356a9.693,9.693,0,0,1-2.573,1.881,6.368,6.368,0,0,1-2.716.566,5.729,5.729,0,0,1-2.809-.684,4.78,4.78,0,0,1-1.927-1.934,5.764,5.764,0,0,1-.684-2.815,6.12,6.12,0,0,1,.756-3.013,5.578,5.578,0,0,1,4.993-2.921,5.667,5.667,0,0,1,2.533.566,4.314,4.314,0,0,1,1.8,1.592,5.5,5.5,0,0,1,.763,2.776Zm0-.46h5.25a7,7,0,0,0-.355-2.552,2.462,2.462,0,0,0-.869-1.1,2.179,2.179,0,0,0-1.263-.388Q366.558,179.994,366.321,184.033Z" transform="translate(-261.692 -171.099)" fill="#5a5c5e"/><path d="M256.051,188.883a2.99,2.99,0,0,1-.343-1.655V183.19a10.288,10.288,0,0,0-.119-1.781,3.93,3.93,0,0,0-.4-1.164,3.665,3.665,0,0,0-1.584-1.578,5.207,5.207,0,0,0-2.482-.568,5.808,5.808,0,0,0-2.012.337,3.481,3.481,0,0,0-1.437.919,1.9,1.9,0,0,0-.519,1.3,1.2,1.2,0,0,0,.323.87,1.228,1.228,0,0,0,1.668.021,2.559,2.559,0,0,0,.365-1.2,2.364,2.364,0,0,1,.477-1.325,1.314,1.314,0,0,1,1.038-.428,1.532,1.532,0,0,1,.834.245,1.672,1.672,0,0,1,.6.652,3.378,3.378,0,0,1,.281,1.044,12.918,12.918,0,0,1,.1,1.679h0v5.311a7.051,7.051,0,0,1-2.98,1.6,1.8,1.8,0,0,1-1.4-.61,2.2,2.2,0,0,1-.554-1.536,2.891,2.891,0,0,1,.519-1.668,3.86,3.86,0,0,1,1.494-1.248,7.845,7.845,0,0,1,2.335-.7v-.448a11.664,11.664,0,0,0-5.329,1.219,3.31,3.31,0,0,0-1.851,2.973,2.711,2.711,0,0,0,.946,2.152,3.73,3.73,0,0,0,2.531.821,7.939,7.939,0,0,0,4.284-1.848v1.693h4.515v-.379A1.918,1.918,0,0,1,256.051,188.883Z" transform="translate(-205.264 -170.416)" fill="#f91942"/><path d="M258.553,185.82h0c0,.037,0,.071,0,.11Z" transform="translate(-211.565 -174.025)" fill="#f91942"/><path d="M174.9,192.351a2.317,2.317,0,0,1-.329-1.255c0-.008,0-.017,0-.025a5.9,5.9,0,0,1,.559-2.149l.721-1.649h-.626l-.642,1.453c-.293.659-.579,1.241-.859,1.756a10.57,10.57,0,0,1-1.139,1.736,5.055,5.055,0,0,1-2.265,1.57v.421H177.6v-.435a6.413,6.413,0,0,1-1.718-.554A2.493,2.493,0,0,1,174.9,192.351Z" transform="translate(-170.32 -174.705)" fill="#f91942"/><path d="M215.3,174.918a9.02,9.02,0,0,0-5.328-1.726v.635a6.3,6.3,0,0,1,2.335.992,4.6,4.6,0,0,1,1.493,1.766,5.112,5.112,0,0,1,.429,1.376c.078.7.314,4.021-2.3,3.742-2.013-.214-2.457-2.239-2.539-3.478V163.8l-4.515.519v.308a1.857,1.857,0,0,1,1.3.638,2.967,2.967,0,0,1,.357,1.676v13.545a2.941,2.941,0,0,1-.35,1.662,1.856,1.856,0,0,1-2.6-.007,2.991,2.991,0,0,1-.343-1.655V163.8l-4.515.519v.308a1.857,1.857,0,0,1,1.3.638,2.967,2.967,0,0,1,.357,1.676v13.545a4.239,4.239,0,0,1-.146,1.229c-1.128,1.6-2.9.444-3.182.243a4.563,4.563,0,0,1-1.088-1.485l-.617-1.276-.077-.154a1.044,1.044,0,0,1-.056-.133.125.125,0,0,0-.049-.077l-6.744-15.158h-.365l-1.568,3.547,3.982,9.008h0l1.5,3.416a4.559,4.559,0,0,1,.449,1.515,1.348,1.348,0,0,1-1.01,1.319,6.56,6.56,0,0,1-1.626.266v.435h24.453a3.527,3.527,0,0,0,2.1-1.184l.023-.023.013-.015h0l.017-.028a3.383,3.383,0,0,0,.659-1.6v0c.006-.037.015-.07.02-.108,0-.014,0-.026,0-.039a6.227,6.227,0,0,0,.087-1.053A5.159,5.159,0,0,0,215.3,174.918Z" transform="translate(-177.874 -163.671)" fill="#f91942"/><path d="M396.9,181.422c0-.007,0-.013,0-.02a2.114,2.114,0,0,0-1.459-1.788c-1.565-.473-2.574,1.65-2.574,1.65.891-.424,1.474.887,1.474.887a1.338,1.338,0,0,0,2.58-.51h0A2.154,2.154,0,0,0,396.9,181.422Z" transform="translate(-275.696 -171.092)" fill="#f91942"/><path d="M388.18,179.683l-4.236.487v.289a1.742,1.742,0,0,1,1.217.6,2.784,2.784,0,0,1,.335,1.573v5.525a2.755,2.755,0,0,1-.329,1.56,1.843,1.843,0,0,1-1.224.611v.355H390v-.355a2.27,2.27,0,0,1-1.428-.619,2.421,2.421,0,0,1-.388-1.552v-.249h0Z" transform="translate(-271.525 -171.156)" fill="#5a5c5e"/><path d="M312.827,181.422c0-.007,0-.013,0-.02a2.112,2.112,0,0,0-1.459-1.788c-1.565-.473-2.573,1.65-2.573,1.65.891-.424,1.474.887,1.474.887a1.338,1.338,0,0,0,2.58-.51h0A1.97,1.97,0,0,0,312.827,181.422Z" transform="translate(-235.804 -171.092)" fill="#f91942"/><path d="M304.106,179.683l-4.236.487v.289a1.739,1.739,0,0,1,1.216.6,2.778,2.778,0,0,1,.336,1.573v5.525a2.755,2.755,0,0,1-.329,1.56,1.841,1.841,0,0,1-1.223.611v.355h6.052v-.355a2.27,2.27,0,0,1-1.427-.619,2.421,2.421,0,0,1-.389-1.552v-.249h0Z" transform="translate(-231.596 -171.156)" fill="#5a5c5e"/><g transform="translate(131.653 5.768)"><path d="M422.164,176.833c-.046,0-.085,0-.131-.006a.628.628,0,0,1-.553-.305c-.131-.181-.259-.4-.372-.584-.071-.113-.117-.135-.3-.135h-.124v.556c0,.3.038.318.323.347v.1h-.946v-.1c.294-.031.319-.046.319-.347v-1.413c0-.3-.039-.312-.319-.344v-.1h.9a1,1,0,0,1,.567.12.53.53,0,0,1,.241.468.657.657,0,0,1-.457.61c.064.11.216.347.322.506a3.235,3.235,0,0,0,.28.365.5.5,0,0,0,.259.163Zm-1.307-1.151a.57.57,0,0,0,.39-.1.5.5,0,0,0,.195-.436.477.477,0,0,0-.525-.518.326.326,0,0,0-.188.035c-.031.025-.042.061-.042.152v.868Z" transform="translate(-420.063 -174.502)" fill="#db0017"/></g><g transform="translate(51.966 20.941)"><path d="M270.425,206.595V203l2.458,2.572v-2.342h.509V206.8l-2.458-2.565v2.36Z" transform="translate(-270.425 -202.995)" fill="#5a5c5e"/><path d="M280.957,206.889h-1.524a.643.643,0,0,0,.17.417.519.519,0,0,0,.386.153.5.5,0,0,0,.3-.087,1.24,1.24,0,0,0,.268-.323l.415.232a1.628,1.628,0,0,1-.2.28,1.081,1.081,0,0,1-.23.192.925.925,0,0,1-.264.11,1.275,1.275,0,0,1-.308.035,1,1,0,0,1-.764-.306,1.146,1.146,0,0,1-.288-.816,1.174,1.174,0,0,1,.28-.816,1.063,1.063,0,0,1,1.488-.009,1.177,1.177,0,0,1,.271.823Zm-.5-.4a.47.47,0,0,0-.5-.393.514.514,0,0,0-.168.027.477.477,0,0,0-.143.079.511.511,0,0,0-.11.123.565.565,0,0,0-.069.164Z" transform="translate(-274.397 -204.237)" fill="#5a5c5e"/><path d="M285.32,205.591l.557,1.214.6-1.409.6,1.409.55-1.214h.55l-1.113,2.286-.592-1.369-.6,1.369-1.111-2.286Z" transform="translate(-277.13 -204.118)" fill="#5a5c5e"/><path d="M299.514,204.984h1.393v.111a2.3,2.3,0,0,1-.089.673,1.429,1.429,0,0,1-.3.506,1.527,1.527,0,0,1-1.194.528,1.643,1.643,0,0,1-1.212-.511,1.76,1.76,0,0,1,2-2.827,2.12,2.12,0,0,1,.644.524l-.362.347a1.229,1.229,0,0,0-1.011-.552,1.209,1.209,0,0,0-.9.368,1.234,1.234,0,0,0-.362.908,1.266,1.266,0,0,0,1.222,1.266,1.014,1.014,0,0,0,.675-.253.9.9,0,0,0,.334-.611h-.84Z" transform="translate(-283.135 -203.139)" fill="#5a5c5e"/><path d="M308.35,206.889h-1.523a.645.645,0,0,0,.17.417.521.521,0,0,0,.387.153.5.5,0,0,0,.3-.087,1.261,1.261,0,0,0,.268-.323l.415.232a1.627,1.627,0,0,1-.2.28,1.079,1.079,0,0,1-.229.192.926.926,0,0,1-.264.11,1.278,1.278,0,0,1-.308.035,1,1,0,0,1-.764-.306,1.146,1.146,0,0,1-.288-.816,1.177,1.177,0,0,1,.28-.816,1.064,1.064,0,0,1,1.489-.009,1.179,1.179,0,0,1,.271.823Zm-.5-.4a.471.471,0,0,0-.5-.393.509.509,0,0,0-.168.027.471.471,0,0,0-.143.079.5.5,0,0,0-.11.123.577.577,0,0,0-.07.164Z" transform="translate(-287.202 -204.237)" fill="#5a5c5e"/><path d="M312.825,205.71h.494v.2a.806.806,0,0,1,.58-.256.734.734,0,0,1,.578.234.957.957,0,0,1,.179.649v1.3h-.493v-1.188a.78.78,0,0,0-.087-.435.353.353,0,0,0-.31-.122.379.379,0,0,0-.347.161,1.109,1.109,0,0,0-.1.556v1.026h-.494Z" transform="translate(-290.246 -204.237)" fill="#5a5c5e"/><path d="M320.955,206.889h-1.524a.645.645,0,0,0,.17.417.52.52,0,0,0,.387.153.5.5,0,0,0,.3-.087,1.273,1.273,0,0,0,.269-.323l.414.232a1.624,1.624,0,0,1-.2.28,1.078,1.078,0,0,1-.229.192.936.936,0,0,1-.265.11,1.275,1.275,0,0,1-.308.035,1,1,0,0,1-.764-.306,1.146,1.146,0,0,1-.288-.816,1.179,1.179,0,0,1,.279-.816,1.064,1.064,0,0,1,1.489-.009,1.177,1.177,0,0,1,.271.823Zm-.5-.4a.471.471,0,0,0-.5-.393.506.506,0,0,0-.168.027.465.465,0,0,0-.143.079.487.487,0,0,0-.11.123.56.56,0,0,0-.07.164Z" transform="translate(-293.094 -204.237)" fill="#5a5c5e"/><path d="M325.431,205.71h.492v.19a.945.945,0,0,1,.24-.194.554.554,0,0,1,.253-.055.8.8,0,0,1,.406.127l-.225.45a.47.47,0,0,0-.273-.1q-.4,0-.4.607v1.1h-.492Z" transform="translate(-296.139 -204.237)" fill="#5a5c5e"/><path d="M331.673,205.71h.493v2.126h-.493v-.223a.943.943,0,0,1-1.382-.035,1.182,1.182,0,0,1-.286-.812,1.146,1.146,0,0,1,.286-.8.92.92,0,0,1,.716-.319.906.906,0,0,1,.666.306Zm-1.166,1.057a.742.742,0,0,0,.164.5.537.537,0,0,0,.424.194.564.564,0,0,0,.44-.188.807.807,0,0,0,0-.987.557.557,0,0,0-.437-.19.543.543,0,0,0-.423.192A.71.71,0,0,0,330.507,206.767Z" transform="translate(-298.277 -204.237)" fill="#5a5c5e"/><path d="M337.242,205.537V207.2h-.492v-1.668h-.209v-.458h.209V204.3h.492v.779h.382v.458Z" transform="translate(-301.332 -203.605)" fill="#5a5c5e"/><path d="M340.741,203.824a.321.321,0,0,1,.319-.316.308.308,0,0,1,.227.094.3.3,0,0,1,.094.225.309.309,0,0,1-.094.227.3.3,0,0,1-.225.094.321.321,0,0,1-.321-.323Zm.566.884v2.126h-.491v-2.126Z" transform="translate(-303.296 -203.235)" fill="#5a5c5e"/><path d="M344.462,206.758a1.056,1.056,0,0,1,.33-.784,1.162,1.162,0,0,1,1.611,0,1.139,1.139,0,0,1,0,1.6,1.124,1.124,0,0,1-.814.321,1.08,1.08,0,0,1-.8-.328A1.1,1.1,0,0,1,344.462,206.758Zm.5.009a.719.719,0,0,0,.17.5.661.661,0,0,0,.921,0,.8.8,0,0,0,0-.991.654.654,0,0,0-.917,0A.683.683,0,0,0,344.964,206.767Z" transform="translate(-305.035 -204.237)" fill="#5a5c5e"/><path d="M351.375,205.71h.494v.2a.805.805,0,0,1,.58-.256.734.734,0,0,1,.579.234.957.957,0,0,1,.179.649v1.3h-.494v-1.188a.775.775,0,0,0-.087-.435.351.351,0,0,0-.31-.122.379.379,0,0,0-.347.161,1.108,1.108,0,0,0-.1.556v1.026h-.494Z" transform="translate(-308.267 -204.237)" fill="#5a5c5e"/><path d="M362.613,203.426v3.37H362.1v-3.37Z" transform="translate(-313.282 -203.197)" fill="#5a5c5e"/><path d="M366.082,205.71h.494v.2a.805.805,0,0,1,.58-.256.734.734,0,0,1,.579.234.958.958,0,0,1,.179.649v1.3h-.493v-1.188a.774.774,0,0,0-.088-.435.352.352,0,0,0-.31-.122.379.379,0,0,0-.347.161,1.11,1.11,0,0,0-.1.556v1.026h-.494Z" transform="translate(-315.142 -204.237)" fill="#5a5c5e"/><path d="M372.251,205.762l.55,1.194.548-1.194h.552l-1.1,2.272-1.1-2.272Z" transform="translate(-317.769 -204.288)" fill="#5a5c5e"/><path d="M379.839,206.889h-1.524a.649.649,0,0,0,.171.417.519.519,0,0,0,.386.153.5.5,0,0,0,.3-.087,1.272,1.272,0,0,0,.269-.323l.414.232a1.633,1.633,0,0,1-.2.28,1.068,1.068,0,0,1-.23.192.925.925,0,0,1-.264.11,1.278,1.278,0,0,1-.308.035,1,1,0,0,1-.764-.306,1.146,1.146,0,0,1-.288-.816,1.176,1.176,0,0,1,.279-.816,1.064,1.064,0,0,1,1.489-.009,1.177,1.177,0,0,1,.271.823Zm-.5-.4a.47.47,0,0,0-.5-.393.51.51,0,0,0-.168.027.469.469,0,0,0-.143.079.478.478,0,0,0-.11.123.563.563,0,0,0-.07.164Z" transform="translate(-320.621 -204.237)" fill="#5a5c5e"/><path d="M385.425,206.073l-.406.216c-.064-.131-.144-.2-.237-.2a.164.164,0,0,0-.116.045.149.149,0,0,0-.048.114c0,.081.095.162.283.242a1.683,1.683,0,0,1,.526.31.53.53,0,0,1,.135.382.67.67,0,0,1-.226.516.814.814,0,0,1-1.29-.325l.419-.194a.9.9,0,0,0,.133.194.3.3,0,0,0,.214.083q.249,0,.249-.227c0-.087-.064-.169-.192-.245l-.149-.072-.151-.072a.922.922,0,0,1-.3-.21.513.513,0,0,1-.111-.342.607.607,0,0,1,.19-.458.667.667,0,0,1,.472-.182A.645.645,0,0,1,385.425,206.073Z" transform="translate(-323.539 -204.237)" fill="#5a5c5e"/><path d="M389.736,205.537V207.2h-.492v-1.668h-.209v-.458h.209V204.3h.492v.779h.382v.458Z" transform="translate(-325.872 -203.605)" fill="#5a5c5e"/><path d="M393.375,205.71h.492v.2a1.019,1.019,0,0,1,.242-.2.592.592,0,0,1,.269-.055.651.651,0,0,1,.569.315.738.738,0,0,1,.627-.315q.718,0,.718.871v1.314H395.8v-1.181a.91.91,0,0,0-.074-.432.269.269,0,0,0-.251-.129.32.32,0,0,0-.3.153.978.978,0,0,0-.093.491v1.1h-.494v-1.175q0-.567-.327-.567a.329.329,0,0,0-.3.155.966.966,0,0,0-.094.489v1.1h-.492Z" transform="translate(-327.9 -204.237)" fill="#5a5c5e"/><path d="M403.543,206.889H402.02a.646.646,0,0,0,.17.417.519.519,0,0,0,.386.153.5.5,0,0,0,.3-.087,1.275,1.275,0,0,0,.269-.323l.414.232a1.631,1.631,0,0,1-.2.28,1.068,1.068,0,0,1-.23.192.925.925,0,0,1-.264.11,1.274,1.274,0,0,1-.308.035,1,1,0,0,1-.764-.306,1.146,1.146,0,0,1-.288-.816,1.177,1.177,0,0,1,.279-.816,1.064,1.064,0,0,1,1.489-.009,1.177,1.177,0,0,1,.271.823Zm-.5-.4a.471.471,0,0,0-.5-.393.511.511,0,0,0-.168.027.467.467,0,0,0-.143.079.488.488,0,0,0-.11.123.565.565,0,0,0-.07.164Z" transform="translate(-331.702 -204.237)" fill="#5a5c5e"/><path d="M408.018,205.71h.494v.2a.806.806,0,0,1,.58-.256.735.735,0,0,1,.579.234.961.961,0,0,1,.179.649v1.3h-.494v-1.188a.78.78,0,0,0-.087-.435.352.352,0,0,0-.31-.122.378.378,0,0,0-.347.161,1.109,1.109,0,0,0-.1.556v1.026h-.494Z" transform="translate(-334.746 -204.237)" fill="#5a5c5e"/><path d="M414.636,205.537V207.2h-.491v-1.668h-.21v-.458h.21V204.3h.491v.779h.382v.458Z" transform="translate(-337.512 -203.605)" fill="#5a5c5e"/></g><path d="M408.972,184.992a21.18,21.18,0,0,0-2.789-1.723,8.642,8.642,0,0,1-1.572-1.006,1.142,1.142,0,0,1-.349-.862,1.221,1.221,0,0,1,.441-.954,1.6,1.6,0,0,1,1.1-.388,2.667,2.667,0,0,1,1.954.862A5.164,5.164,0,0,1,409,183.281h.355l-.553-3.052a10.086,10.086,0,0,0-3.145-.644,4.018,4.018,0,0,0-2.6.809,2.569,2.569,0,0,0-1.007,2.1,2.454,2.454,0,0,0,.935,1.973,14.735,14.735,0,0,0,2.132,1.342,17.742,17.742,0,0,1,1.947,1.171,1.683,1.683,0,0,1,.671,1.394,1.788,1.788,0,0,1-.572,1.381,2.064,2.064,0,0,1-1.454.527q-2.5,0-3.684-4.092h-.316l.316,4a12.663,12.663,0,0,0,3.815.724,6.168,6.168,0,0,0,1.777-.244,4.228,4.228,0,0,0,1.407-.7,3.07,3.07,0,0,0,.895-1.079,3.126,3.126,0,0,0,.3-1.394A3.01,3.01,0,0,0,408.972,184.992Z" transform="translate(-279.83 -171.11)" fill="#5a5c5e"/></g></g></svg>