<svg width="163" height="90" viewBox="0 0 163 90" fill="none" xmlns="http://www.w3.org/2000/svg">
  <path d="M65.2586 21.1148C65.2586 22.7037 63.9958 23.9998 62.4173 23.9998H52.1363C50.5715 23.9998 49.2949 22.7037 49.2949 21.1148V10.6759C49.2949 9.08705 50.5577 7.79089 52.1363 7.79089H62.4173C63.9821 7.79089 65.2586 9.07311 65.2586 10.6759V21.1148Z" fill="#3FB0F7"/>
  <path d="M65.2586 48.7662C65.2586 50.355 63.9958 51.6512 62.4173 51.6512H52.1363C50.5715 51.6512 49.2949 50.369 49.2949 48.7662V38.3273C49.2949 36.7384 50.5577 35.4423 52.1363 35.4423H62.4173C63.9821 35.4423 65.2586 36.7245 65.2586 38.3273V48.7662Z" fill="#6D6AFE"/>
  <path d="M47.95 35.3169C47.95 36.9057 46.6872 38.2019 45.1086 38.2019H34.8413C33.2628 38.1879 32 36.9057 32 35.3169V24.8779C32 23.2891 33.2628 21.9929 34.8413 21.9929H45.1224C46.6872 21.9929 47.9637 23.2751 47.9637 24.8779V35.3169H47.95Z" fill="#5196FA"/>
  <path d="M99.1765 32.9057C98.2156 31.1496 96.4038 29.7559 93.7409 28.7385C96.9665 26.7733 98.5725 24.0974 98.5725 20.7106C98.5725 18.4668 98.1196 16.5713 97.2136 15.0521C96.3077 13.5191 95.0449 12.2787 93.4389 11.3309C91.9153 10.4389 90.1034 9.79783 88.017 9.40759V0H81.7578V8.76648C81.2911 8.75255 80.8244 8.73861 80.344 8.73861C79.6302 8.73861 78.8753 8.75255 78.1203 8.78042V0H71.8611V8.75255H67.606V9.85358V51.0519V52.2783H71.8611V60.1807H78.1203V52.2226C79.2596 52.2644 80.3989 52.2783 81.5519 52.2783C81.6205 52.2783 81.6892 52.2783 81.7715 52.2783V60.1807H88.0307V51.8045C91.2427 51.2749 93.8369 50.3132 95.841 48.9055C99.0392 46.6617 100.645 43.3028 100.645 38.8568C100.631 36.6548 100.151 34.6618 99.1765 32.9057ZM81.8539 16.4737C84.3521 16.4737 86.2463 16.8222 87.5366 17.519C88.8268 18.2159 89.472 19.4145 89.472 21.1288C89.472 22.8152 88.8406 24.0277 87.6052 24.7803C86.3561 25.5329 84.2834 25.9231 81.3872 25.9231H76.8026V16.6689C77.5301 16.5852 78.3537 16.5434 79.2733 16.5156C80.1793 16.4877 81.044 16.4737 81.8539 16.4737ZM88.4974 43.2052C86.7679 44.0275 84.4893 44.4317 81.6754 44.4317C80.7146 44.4317 79.8224 44.4178 79.0125 44.362C78.2027 44.3202 77.4615 44.2645 76.7751 44.1808V33.2123H82.6912C85.3815 33.2123 87.4679 33.6304 88.9092 34.4666C90.3642 35.3029 91.078 36.6966 91.078 38.6617C91.0917 40.8777 90.2269 42.3969 88.4974 43.2052Z" fill="url(#paint0_linear_319_2803)"/>
  <path d="M7.58736 78.8174L7.07297 80.7793H11.5418L11.0595 78.8174C10.7595 77.7493 10.4701 76.6158 10.1915 75.4169C9.91287 74.218 9.63424 73.0627 9.35561 71.951H9.22701C8.96981 73.0845 8.70189 74.2507 8.42326 75.4496C8.16606 76.6267 7.88743 77.7493 7.58736 78.8174ZM0 89.6076L6.55857 68.2888H12.2491L18.8077 89.6076H13.7923L12.5063 84.5395H6.10847L4.82248 89.6076H0Z" fill="url(#paint1_linear_319_2803)"/>
  <path d="M20.7123 89.6076V66.6866H25.4383V72.3106L25.2133 75.2207C25.8134 74.6757 26.51 74.1744 27.303 73.7166C28.096 73.2371 29.0391 72.9973 30.1322 72.9973C31.8683 72.9973 33.1221 73.5749 33.8937 74.7302C34.6868 75.8856 35.0833 77.4877 35.0833 79.5368V89.6076H30.3572V80.158C30.3572 78.9809 30.1965 78.1744 29.875 77.7384C29.5749 77.3025 29.082 77.0845 28.3961 77.0845C27.796 77.0845 27.2816 77.2262 26.8529 77.5095C26.4242 77.7711 25.9527 78.1526 25.4383 78.654V89.6076H20.7123Z" fill="url(#paint2_linear_319_2803)"/>
  <path d="M43.0979 90C42.3692 90 41.7047 89.8692 41.1046 89.6076C40.5259 89.3678 40.0329 89.03 39.6257 88.594C39.2185 88.1362 38.897 87.6131 38.6612 87.0245C38.4469 86.436 38.3397 85.7929 38.3397 85.0954C38.3397 83.3951 39.047 82.0654 40.4616 81.1063C41.8762 80.1471 44.1588 79.5041 47.3095 79.1771C47.2666 78.4578 47.0523 77.891 46.6665 77.4768C46.3021 77.0409 45.6806 76.8229 44.8018 76.8229C44.116 76.8229 43.4301 76.9537 42.7442 77.2153C42.0798 77.4768 41.3618 77.8365 40.5902 78.2943L38.8862 75.1226C39.915 74.4905 40.9867 73.9782 42.1012 73.5858C43.2372 73.1935 44.4375 72.9973 45.702 72.9973C47.7596 72.9973 49.3242 73.5967 50.3959 74.7956C51.489 75.9728 52.0355 77.8147 52.0355 80.3215V89.6076H48.1776L47.8561 87.9401H47.7275C47.0416 88.5504 46.3236 89.0518 45.5734 89.4441C44.8233 89.8147 43.9981 90 43.0979 90ZM44.7054 86.2725C45.2412 86.2725 45.702 86.1526 46.0878 85.9128C46.4736 85.673 46.8808 85.3351 47.3095 84.8992V82.0545C45.6377 82.2943 44.4803 82.6431 43.8373 83.1008C43.1943 83.5586 42.8728 84.1035 42.8728 84.7357C42.8728 85.2589 43.0336 85.6512 43.3551 85.9128C43.698 86.1526 44.1481 86.2725 44.7054 86.2725Z" fill="url(#paint3_linear_319_2803)"/>
  <path d="M56.419 89.6076V68.2888H69.6326V72.3433H61.145V77.2807H68.4109V81.3351H61.145V89.6076H56.419Z" fill="url(#paint4_linear_319_2803)"/>
  <path d="M72.893 89.6076V73.3896H77.619V89.6076H72.893ZM75.2399 71.0027C74.4469 71.0027 73.7932 70.7738 73.2788 70.3161C72.7644 69.8365 72.5072 69.2262 72.5072 68.485C72.5072 67.7439 72.7644 67.1444 73.2788 66.6866C73.7932 66.2289 74.4469 66 75.2399 66C76.0544 66 76.7081 66.2289 77.2011 66.6866C77.7155 67.1444 77.9727 67.7439 77.9727 68.485C77.9727 69.2262 77.7155 69.8365 77.2011 70.3161C76.7081 70.7738 76.0544 71.0027 75.2399 71.0027Z" fill="url(#paint5_linear_319_2803)"/>
  <path d="M81.7782 89.6076V73.3896H85.6362L85.9576 75.4496H86.0863C86.7721 74.7956 87.5223 74.2289 88.3367 73.7493C89.1512 73.248 90.105 72.9973 91.1981 72.9973C92.9342 72.9973 94.188 73.5749 94.9596 74.7302C95.7526 75.8856 96.1492 77.4877 96.1492 79.5368V89.6076H91.4231V80.158C91.4231 78.9809 91.2624 78.1744 90.9409 77.7384C90.6408 77.3025 90.1479 77.0845 89.462 77.0845C88.8619 77.0845 88.3475 77.2262 87.9188 77.5095C87.4901 77.7711 87.0186 78.1526 86.5042 78.654V89.6076H81.7782Z" fill="url(#paint6_linear_319_2803)"/>
  <path d="M104.195 90C103.466 90 102.802 89.8692 102.202 89.6076C101.623 89.3678 101.13 89.03 100.723 88.594C100.316 88.1362 99.9942 87.6131 99.7585 87.0245C99.5441 86.436 99.437 85.7929 99.437 85.0954C99.437 83.3951 100.144 82.0654 101.559 81.1063C102.973 80.1471 105.256 79.5041 108.407 79.1771C108.364 78.4578 108.15 77.891 107.764 77.4768C107.399 77.0409 106.778 76.8229 105.899 76.8229C105.213 76.8229 104.527 76.9537 103.842 77.2153C103.177 77.4768 102.459 77.8365 101.687 78.2943L99.9835 75.1226C101.012 74.4905 102.084 73.9782 103.199 73.5858C104.334 73.1935 105.535 72.9973 106.799 72.9973C108.857 72.9973 110.422 73.5967 111.493 74.7956C112.586 75.9728 113.133 77.8147 113.133 80.3215V89.6076H109.275L108.953 87.9401H108.825C108.139 88.5504 107.421 89.0518 106.671 89.4441C105.921 89.8147 105.095 90 104.195 90ZM105.803 86.2725C106.338 86.2725 106.799 86.1526 107.185 85.9128C107.571 85.673 107.978 85.3351 108.407 84.8992V82.0545C106.735 82.2943 105.578 82.6431 104.935 83.1008C104.292 83.5586 103.97 84.1035 103.97 84.7357C103.97 85.2589 104.131 85.6512 104.452 85.9128C104.795 86.1526 105.245 86.2725 105.803 86.2725Z" fill="url(#paint7_linear_319_2803)"/>
  <path d="M117.13 89.6076V73.3896H120.988L121.31 75.4496H121.439C122.124 74.7956 122.875 74.2289 123.689 73.7493C124.503 73.248 125.457 72.9973 126.55 72.9973C128.286 72.9973 129.54 73.5749 130.312 74.7302C131.105 75.8856 131.501 77.4877 131.501 79.5368V89.6076H126.775V80.158C126.775 78.9809 126.615 78.1744 126.293 77.7384C125.993 77.3025 125.5 77.0845 124.814 77.0845C124.214 77.0845 123.7 77.2262 123.271 77.5095C122.842 77.7711 122.371 78.1526 121.856 78.654V89.6076H117.13Z" fill="url(#paint8_linear_319_2803)"/>
  <path d="M142.473 90C141.359 90 140.319 89.8147 139.355 89.4441C138.411 89.0518 137.586 88.4959 136.879 87.7766C136.172 87.0572 135.614 86.1744 135.207 85.1281C134.8 84.0599 134.596 82.8501 134.596 81.4986C134.596 80.1471 134.821 78.9482 135.271 77.9019C135.722 76.8338 136.322 75.9401 137.072 75.2207C137.843 74.5014 138.733 73.9564 139.74 73.5858C140.748 73.1935 141.798 72.9973 142.891 72.9973C143.877 72.9973 144.745 73.1608 145.495 73.4877C146.267 73.8147 146.953 74.2289 147.553 74.7302L145.334 77.8365C144.584 77.2044 143.866 76.8883 143.18 76.8883C142.023 76.8883 141.112 77.3025 140.448 78.1308C139.783 78.9591 139.451 80.0817 139.451 81.4986C139.451 82.9155 139.783 84.0381 140.448 84.8665C141.133 85.6948 141.991 86.109 143.02 86.109C143.534 86.109 144.027 86 144.499 85.782C144.991 85.5422 145.452 85.2589 145.881 84.9319L147.746 88.0708C146.953 88.7684 146.095 89.2698 145.174 89.5749C144.252 89.8583 143.352 90 142.473 90Z" fill="url(#paint9_linear_319_2803)"/>
  <path d="M156.763 90C155.627 90 154.566 89.8147 153.58 89.4441C152.594 89.0518 151.737 88.4959 151.008 87.7766C150.279 87.0354 149.711 86.1417 149.304 85.0954C148.897 84.049 148.693 82.8501 148.693 81.4986C148.693 80.1907 148.908 79.0136 149.336 77.9673C149.765 76.8992 150.322 76.0055 151.008 75.2861C151.715 74.545 152.519 73.9782 153.419 73.5858C154.32 73.1935 155.252 72.9973 156.216 72.9973C157.352 72.9973 158.338 73.1935 159.174 73.5858C160.031 73.9782 160.739 74.5232 161.296 75.2207C161.875 75.9183 162.303 76.7466 162.582 77.7057C162.861 78.6431 163 79.6676 163 80.7793C163 81.2153 162.979 81.6294 162.936 82.0218C162.893 82.4142 162.85 82.7084 162.807 82.9046H153.259C153.473 84.0817 153.944 84.9537 154.673 85.5204C155.423 86.0654 156.334 86.3379 157.406 86.3379C158.542 86.3379 159.689 85.9782 160.846 85.2589L162.421 88.1689C161.607 88.7357 160.696 89.1826 159.689 89.5095C158.703 89.8365 157.727 90 156.763 90ZM153.226 79.733H158.981C158.981 78.8174 158.778 78.0763 158.37 77.5095C157.963 76.9428 157.277 76.6594 156.313 76.6594C155.563 76.6594 154.898 76.9101 154.32 77.4114C153.762 77.9128 153.398 78.6866 153.226 79.733Z" fill="url(#paint10_linear_319_2803)"/>
  <defs>
    <linearGradient id="paint0_linear_319_2803" x1="84.8558" y1="39.5873" x2="80.5227" y2="18.025" gradientUnits="userSpaceOnUse">
      <stop stop-color="#6D6AFE"/>
      <stop offset="1" stop-color="#3FB0F7"/>
    </linearGradient>
    <linearGradient id="paint1_linear_319_2803" x1="85.1026" y1="81.7874" x2="84.9573" y2="72.8434" gradientUnits="userSpaceOnUse">
      <stop stop-color="#6D6AFE"/>
      <stop offset="1" stop-color="#3FB0F7"/>
    </linearGradient>
    <linearGradient id="paint2_linear_319_2803" x1="85.1026" y1="81.7874" x2="84.9573" y2="72.8434" gradientUnits="userSpaceOnUse">
      <stop stop-color="#6D6AFE"/>
      <stop offset="1" stop-color="#3FB0F7"/>
    </linearGradient>
    <linearGradient id="paint3_linear_319_2803" x1="85.1026" y1="81.7874" x2="84.9573" y2="72.8434" gradientUnits="userSpaceOnUse">
      <stop stop-color="#6D6AFE"/>
      <stop offset="1" stop-color="#3FB0F7"/>
    </linearGradient>
    <linearGradient id="paint4_linear_319_2803" x1="85.1026" y1="81.7874" x2="84.9573" y2="72.8434" gradientUnits="userSpaceOnUse">
      <stop stop-color="#6D6AFE"/>
      <stop offset="1" stop-color="#3FB0F7"/>
    </linearGradient>
    <linearGradient id="paint5_linear_319_2803" x1="85.1026" y1="81.7874" x2="84.9573" y2="72.8434" gradientUnits="userSpaceOnUse">
      <stop stop-color="#6D6AFE"/>
      <stop offset="1" stop-color="#3FB0F7"/>
    </linearGradient>
    <linearGradient id="paint6_linear_319_2803" x1="85.1026" y1="81.7874" x2="84.9573" y2="72.8434" gradientUnits="userSpaceOnUse">
      <stop stop-color="#6D6AFE"/>
      <stop offset="1" stop-color="#3FB0F7"/>
    </linearGradient>
    <linearGradient id="paint7_linear_319_2803" x1="85.1026" y1="81.7874" x2="84.9573" y2="72.8434" gradientUnits="userSpaceOnUse">
      <stop stop-color="#6D6AFE"/>
      <stop offset="1" stop-color="#3FB0F7"/>
    </linearGradient>
    <linearGradient id="paint8_linear_319_2803" x1="85.1026" y1="81.7874" x2="84.9573" y2="72.8434" gradientUnits="userSpaceOnUse">
      <stop stop-color="#6D6AFE"/>
      <stop offset="1" stop-color="#3FB0F7"/>
    </linearGradient>
    <linearGradient id="paint9_linear_319_2803" x1="85.1026" y1="81.7874" x2="84.9573" y2="72.8434" gradientUnits="userSpaceOnUse">
      <stop stop-color="#6D6AFE"/>
      <stop offset="1" stop-color="#3FB0F7"/>
    </linearGradient>
    <linearGradient id="paint10_linear_319_2803" x1="85.1026" y1="81.7874" x2="84.9573" y2="72.8434" gradientUnits="userSpaceOnUse">
      <stop stop-color="#6D6AFE"/>
      <stop offset="1" stop-color="#3FB0F7"/>
    </linearGradient>
  </defs>
</svg>
