<?xml version="1.0" encoding="UTF-8"?><svg id="Layer_2" xmlns="http://www.w3.org/2000/svg" xmlns:xlink="http://www.w3.org/1999/xlink" viewBox="0 0 435.58 81.53"><defs><style>.cls-1{fill:url(#linear-gradient-2);}.cls-2{fill:url(#linear-gradient-3);}.cls-3{fill:url(#linear-gradient);}.cls-4{fill:url(#linear-gradient-4);}</style><linearGradient id="linear-gradient" x1="112.3" y1="43.23" x2="119.57" y2="43.23" gradientTransform="translate(0 84) scale(1 -1)" gradientUnits="userSpaceOnUse"><stop offset="0" stop-color="#e2523e"/><stop offset="1" stop-color="#c94432"/></linearGradient><linearGradient id="linear-gradient-2" x1="123.74" y1="43.24" x2="145.44" y2="43.24" gradientTransform="translate(0 84) scale(1 -1)" gradientUnits="userSpaceOnUse"><stop offset="0" stop-color="#e2523e"/><stop offset="1" stop-color="#c94432"/></linearGradient><linearGradient id="linear-gradient-3" x1="147.69" y1="43.23" x2="173.16" y2="43.23" gradientTransform="translate(0 84) scale(1 -1)" gradientUnits="userSpaceOnUse"><stop offset="0" stop-color="#e2523e"/><stop offset="1" stop-color="#c94432"/></linearGradient><linearGradient id="linear-gradient-4" x1="0" y1="43.24" x2="87.73" y2="43.24" gradientTransform="translate(0 84) scale(1 -1)" gradientUnits="userSpaceOnUse"><stop offset="0" stop-color="#e2523e"/><stop offset="1" stop-color="#c94432"/></linearGradient></defs><g id="Layer_1-2"><g><g><path class="cls-3" d="m112.3,15.05h7.28v51.43h-7.28V15.05Z"/><path class="cls-1" d="m134.66,14.46c7.08,0,10.72,4.7,10.72,12.93v1.62h-6.88v-2.13c0-3.67-1.32-5.07-3.64-5.07s-3.64,1.4-3.64,5.07c0,10.58,14.22,12.56,14.22,27.26,0,8.23-3.71,12.93-10.85,12.93s-10.85-4.7-10.85-12.93v-3.16h6.88v3.67c0,3.67,1.46,5,3.77,5s3.77-1.32,3.77-5c0-10.58-14.22-12.56-14.22-27.26,0-8.23,3.64-12.93,10.72-12.93Z"/><path class="cls-2" d="m173.16,66.48h-7.34l-1.26-9.33h-8.93l-1.26,9.33h-6.68l7.41-51.43h10.65l7.41,51.43h0Zm-16.61-16.31h7.01l-3.51-26.01-3.51,26.01h0Z"/><path d="m186.78,15.05h7.28v51.43h-7.28V15.05Z"/><path d="m205.84,29.23v37.25h-6.55V15.05h9.13l7.48,30.79V15.05h6.48v51.43h-7.48s-9.06-37.25-9.06-37.25Z"/><path d="m238.58,57l5.56-41.95h6.68l-7.15,51.43h-10.85l-7.15-51.43h7.34l5.56,41.95h.01Z"/><path d="m261.47,36.72h9.99v7.35h-9.99v15.06h12.57v7.35h-19.85V15.05h19.85v7.35h-12.57v14.33h0Z"/><path d="m288.33,14.46c7.08,0,10.72,4.7,10.72,12.93v1.62h-6.88v-2.13c0-3.67-1.32-5.07-3.64-5.07s-3.64,1.4-3.64,5.07c0,10.58,14.22,12.56,14.22,27.26,0,8.23-3.71,12.93-10.85,12.93s-10.85-4.7-10.85-12.93v-3.16h6.88v3.67c0,3.67,1.46,5,3.77,5s3.77-1.32,3.77-5c0-10.58-14.22-12.56-14.22-27.26,0-8.23,3.64-12.93,10.72-12.93h0Z"/><path d="m301.16,15.05h22.49v7.35h-7.61v44.08h-7.28V22.39h-7.61v-7.35h0Z"/><path d="m342.24,51.56l4.96-36.52h10.12v51.43h-6.88V29.6l-5.03,36.88h-6.88l-5.42-36.37v36.37h-6.35V15.05h10.12l5.36,36.52h0Z"/><path d="m369.9,36.72h9.99v7.35h-9.99v15.06h12.57v7.35h-19.85V15.05h19.85v7.35h-12.57v14.33h0Z"/><path d="m393.45,29.23v37.25h-6.55V15.05h9.13l7.48,30.79V15.05h6.48v51.43h-7.48l-9.06-37.25h0Z"/><path d="m413.09,15.05h22.49v7.35h-7.61v44.08h-7.28V22.39h-7.61v-7.35h0Z"/></g><path class="cls-4" d="m87.73,81.53H0V0h87.73v81.53Zm-19.82-8.39V29.03h-11.03v44.11h11.03Zm-28.47-32.06c0,10.09-.05,19.93.09,29.77,0,.78,1.24,2.15,1.99,2.22,2.85.27,5.74.11,8.65.11v-32.09h-10.73Zm-16.98,21.48h.03c0,2.2.12,4.41-.03,6.61-.24,3.63,2.15,3.61,4.62,3.5,2.51-.11,5.64.76,5.58-3.54-.06-4.11-.15-8.23.06-12.33.16-3.29-1.12-4.34-4.36-4.27-5.94.13-5.95-.04-5.89,6.06.01,1.32,0,2.64,0,3.96h-.01ZM56.81,22.71h11.06v-9.99h-11.06v9.99Z"/></g></g></svg>